<svg width="60" height="60" viewBox="0 0 60 60" fill="none" xmlns="http://www.w3.org/2000/svg">
<g clip-path="url(#clip0_1036_141)">
<rect width="60" height="60" fill="black"/>
<path d="M4.72 53V36.488H7.28V39.176H7.408C7.6 38.7493 7.81333 38.3547 8.048 37.992C8.304 37.608 8.60267 37.2773 8.944 37C9.30667 36.7227 9.72267 36.5093 10.192 36.36C10.6613 36.1893 11.216 36.104 11.856 36.104C12.944 36.104 13.9467 36.3707 14.864 36.904C15.7813 37.416 16.464 38.2693 16.912 39.464H16.976C17.2747 38.568 17.8293 37.7893 18.64 37.128C19.472 36.4453 20.592 36.104 22 36.104C23.6853 36.104 24.9973 36.6587 25.936 37.768C26.896 38.856 27.376 40.4027 27.376 42.408V53H24.816V42.856C24.816 41.384 24.528 40.2747 23.952 39.528C23.376 38.7813 22.4587 38.408 21.2 38.408C20.688 38.408 20.1973 38.472 19.728 38.6C19.28 38.728 18.8747 38.92 18.512 39.176C18.1493 39.432 17.8613 39.7627 17.648 40.168C17.4347 40.552 17.328 41.0107 17.328 41.544V53H14.768V42.856C14.768 41.384 14.48 40.2747 13.904 39.528C13.328 38.7813 12.432 38.408 11.216 38.408C10.704 38.408 10.2133 38.472 9.744 38.6C9.27467 38.728 8.85867 38.92 8.496 39.176C8.13333 39.432 7.83467 39.7627 7.6 40.168C7.38667 40.552 7.28 41.0107 7.28 41.544V53H4.72ZM32.6575 53V36.488H35.2175V39.176H35.3455C35.7508 38.2373 36.3162 37.4907 37.0415 36.936C37.7882 36.3813 38.7802 36.104 40.0175 36.104C41.7242 36.104 43.0682 36.6587 44.0495 37.768C45.0522 38.856 45.5535 40.4027 45.5535 42.408V53H42.9935V42.856C42.9935 39.8907 41.7455 38.408 39.2495 38.408C38.7375 38.408 38.2362 38.472 37.7455 38.6C37.2762 38.728 36.8495 38.92 36.4655 39.176C36.0815 39.432 35.7722 39.7627 35.5375 40.168C35.3242 40.552 35.2175 41.0107 35.2175 41.544V53H32.6575ZM52.477 53.384C51.7943 53.384 51.293 53.2133 50.973 52.872C50.6743 52.5307 50.525 52.0827 50.525 51.528V51.112C50.525 50.5573 50.6743 50.1093 50.973 49.768C51.293 49.4267 51.7943 49.256 52.477 49.256C53.1597 49.256 53.6503 49.4267 53.949 49.768C54.269 50.1093 54.429 50.5573 54.429 51.112V51.528C54.429 52.0827 54.269 52.5307 53.949 52.872C53.6503 53.2133 53.1597 53.384 52.477 53.384Z" fill="white"/>
</g>
<defs>
<clipPath id="clip0_1036_141">
<rect width="60" height="60" fill="white"/>
</clipPath>
</defs>
</svg>
